# xmcd
# Copyright (C) 1995-1998 Ti Kan
#
# Track frame offsets:
#       150
#       71802
#       139778
#       207822
#
# Disc length: 3618 seconds
#
# Revision: 0
# Processed by: cddbd v1.5.2PL0 Copyright (c) Steve Scherf et al.
# Submitted via: CD-Transfer v1.0
#
DISCID=390e2004
DTITLE=Friday Night Live Mixed By N.d. Wave - 
DYEAR=1900
DGENRE=
TTITLE0=Oldies Disco
TTITLE1=R'n'b Modern
TTITLE2=House Comercial
TTITLE3=Oldies
EXTD=
EXTT0=
EXTT1=
EXTT2=
EXTT3=
PLAYORDER=
